# xmcd
#
# Track frame offsets:
#	150
#	14247
#	26862
#	46985
#	62160
#	79207
#	92585
#	104655
#	118639
#	133052
#	147585
#	162627
#	179560
#
# Disc length: 2648 seconds
#
# Revision: 0
# Processed by: cddbd v1.5.1PL0 Copyright (c) Steve Scherf et al.
# Submitted via: dBpowerAMP V4.0
#
DISCID=c80a560d
DTITLE=C.O.D. - C.O.D.`s Deliverance
DYEAR=2003
DGENRE=Country
TTITLE0=Claim on my heart
TTITLE1=Loves for free
TTITLE2=Go on
TTITLE3=Beautiful disaster
TTITLE4=Turn to grey
TTITLE5=Mr. Right
TTITLE6=Gone,gone,gone
TTITLE7=Addicted to you
TTITLE8=Leaving you behind
TTITLE9=Gone for good
TTITLE10=Cowgirl boogie
TTITLE11=We`re both crazy
TTITLE12=A.K.A. from a friend
EXTD=
EXTT0=
EXTT1=
EXTT2=
EXTT3=
EXTT4=
EXTT5=
EXTT6=
EXTT7=
EXTT8=
EXTT9=
EXTT10=
EXTT11=
EXTT12=
PLAYORDER=
